PathFileType	4	(X/Y/Z)	/Users/itak/Documents/Research/Walk-IL/dataset/trc/00114_00007.trc
DataRate	CameraRate	NumFrames	NumMarkers	Units	OrigDataRate	OrigDataStartFrame	OrigNumFrames
100.000000	100.000000	4	53	mm	100.000000	489	559
Frame#	Time	RPSI			LPSI			L3			STRN			T10			C7			CLAV			RBAK			LBAK			LSHO			LUPA			LAEL			LAOL			LWTS			LWPS			LFRA			LIFD			LHPS			LHTS			RSHO			RUPA			RAEL			RAOL			RWTS			RWPS			RFRA			RIFD			RHTS			RHPS			RBHD			LFHD			RFHD			LBHD			LHIP			RHIP			RASI			LASI			LKNE			LTHI			LANK			LTIP			LTOE			LMT1			LMT5			LHEE			RKNE			RTHI			RANK			RTIP			RTOE			RMT1			RMT5			RHEE			
		X1	Y1	Z1	X2	Y2	Z2	X3	Y3	Z3	X4	Y4	Z4	X5	Y5	Z5	X6	Y6	Z6	X7	Y7	Z7	X8	Y8	Z8	X9	Y9	Z9	X10	Y10	Z10	X11	Y11	Z11	X12	Y12	Z12	X13	Y13	Z13	X14	Y14	Z14	X15	Y15	Z15	X16	Y16	Z16	X17	Y17	Z17	X18	Y18	Z18	X19	Y19	Z19	X20	Y20	Z20	X21	Y21	Z21	X22	Y22	Z22	X23	Y23	Z23	X24	Y24	Z24	X25	Y25	Z25	X26	Y26	Z26	X27	Y27	Z27	X28	Y28	Z28	X29	Y29	Z29	X30	Y30	Z30	X31	Y31	Z31	X32	Y32	Z32	X33	Y33	Z33	X34	Y34	Z34	X35	Y35	Z35	X36	Y36	Z36	X37	Y37	Z37	X38	Y38	Z38	X39	Y39	Z39	X40	Y40	Z40	X41	Y41	Z41	X42	Y42	Z42	X43	Y43	Z43	X44	Y44	Z44	X45	Y45	Z45	X46	Y46	Z46	X47	Y47	Z47	X48	Y48	Z48	X49	Y49	Z49	X50	Y50	Z50	X51	Y51	Z51	X52	Y52	Z52	X53	Y53	Z53	

490	4.89	-1608.634033203125	1129.88037109375	-257.422119140625	-1602.603881835938	1130.568237304688	-392.1820983886719	-1611.650024414062	1164.227294921875	-328.6121520996094	-1386.03759765625	1357.496948242188	-326.87744140625	-1643.3076171875	1316.393310546875	-335.7132568359375	-1592.846923828125	1606.469604492188	-356.2670593261719	-1416.253173828125	1493.830078125	-336.2067260742188	-1658.013549804688	1427.320556640625	-266.6022338867188	-1597.118286132812	1584.220947265625	-458.4937438964844	-1507.824829101562	1565.719482421875	-521.7577514648438	-1526.38232421875	1432.4833984375	-588.7407836914062	-1511.817626953125	1211.62646484375	-602.1209106445312	-1582.506713867188	1201.979736328125	-551.26416015625	-1419.664306640625	954.8447265625	-539.447998046875	-1498.027099609375	929.0850219726562	-573.7306518554688	-1496.067749023438	1095.386352539062	-600.2500610351562	-1414.107666015625	762.092041015625	-509.1833190917969	-1470.023559570312	853.6299438476562	-568.6001586914062	-1404.9541015625	864.490966796875	-545.5371704101562	-1546.869995117188	1589.834716796875	-171.8194427490234	-1570.256469726562	1518.933837890625	-107.5734939575195	-1598.408447265625	1226.13134765625	-83.09740447998047	-1595.891723632812	1223.401977539062	-180.2477874755859	-1468.797973632812	975.9541015625	-74.82244110107422	-1547.354614257812	963.5496826171875	-53.00362396240234	-1581.66455078125	1152.302368164062	-63.96798706054688	-1454.01806640625	778.69091796875	-85.8541259765625	-1445.627319335938	866.4600830078125	-63.17120742797852	-1517.375244140625	862.576171875	-41.61326217651367	-1550.379272460938	1777.728393554688	-274.3988037109375	-1382.784057617188	1838.619873046875	-404.317626953125	-1384.381713867188	1842.062377929688	-274.487548828125	-1555.70068359375	1778.483032226562	-409.6999206542969	-1510.6923828125	1039.155639648438	-496.3206481933594	-1490.076782226562	1031.282836914062	-131.2455749511719	-1404.057861328125	1103.276733398438	-187.047607421875	-1399.844360351562	1100.2041015625	-453.4369201660156	-1476.19091796875	535.1498413085938	-476.5664978027344	-1501.904663085938	682.3540649414062	-500.2287902832031	-1613.137084960938	37.12824249267578	-484.2294311523438	-1588.453491210938	292.1044921875	-508.5003967285156	-1380.340087890625	38.63044738769531	-433.2880554199219	-1461.23388671875	40.42913055419922	-397.1413269042969	-1486.650390625	35.21638107299805	-512.2971801757812	-1679.908325195312	36.92010116577148	-418.6846313476562	-1485.754760742188	537.1173706054688	-181.9533538818359	-1468.943481445312	815.380859375	-143.9155578613281	-1589.075927734375	27.31876754760742	-213.4929962158203	-1509.80810546875	402.3326721191406	-172.9337768554688	-1358.68359375	54.70011901855469	-253.6437530517578	-1413.317016601562	36.10479736328125	-298.0137329101562	-1456.107299804688	42.98773574829102	-187.3287506103516	-1644.948974609375	29.98885154724121	-265.5376281738281	
491	4.9	-1609.415161132812	1130.168701171875	-258.0516662597656	-1603.848022460938	1131.029418945312	-392.8281555175781	-1612.6015625	1164.654663085938	-329.2419128417969	-1387.220825195312	1357.85888671875	-328.2195129394531	-1644.375	1316.629272460938	-336.2103271484375	-1594.341674804688	1606.675659179688	-357.0859069824219	-1417.586303710938	1494.150390625	-337.4147033691406	-1659.067504882812	1427.422729492188	-267.2981567382812	-1598.792358398438	1584.431762695312	-459.28759765625	-1509.600219726562	1566.057250976562	-522.753662109375	-1528.016845703125	1432.810791015625	-589.7721557617188	-1512.69091796875	1211.93310546875	-603.077392578125	-1583.483642578125	1202.164428710938	-552.4091186523438	-1420.462280273438	955.1710815429688	-540.185302734375	-1498.767822265625	929.3977661132812	-574.7145385742188	-1496.794677734375	1095.708251953125	-601.160888671875	-1414.948364257812	762.4011840820312	-509.9564208984375	-1470.716796875	853.9495239257812	-569.52294921875	-1405.69384765625	864.8424072265625	-546.2471313476562	-1547.983764648438	1590.04833984375	-172.7382049560547	-1571.096557617188	1519.068603515625	-108.502067565918	-1598.118896484375	1226.089965820312	-84.03861236572266	-1596.09228515625	1223.45849609375	-181.1728363037109	-1467.149047851562	976.6502685546875	-76.62749481201172	-1545.491088867188	963.7217407226562	-54.44295883178711	-1580.901977539062	1152.31396484375	-65.07139587402344	-1450.629150390625	779.8076782226562	-87.89875793457031	-1443.1103515625	867.3634643554688	-65.16844940185547	-1514.758422851562	862.8981323242188	-43.36422348022461	-1552.13037109375	1777.913452148438	-275.4329528808594	-1384.619506835938	1839.1533203125	-405.2792053222656	-1386.246337890625	1842.54052734375	-275.43408203125	-1557.433471679688	1778.73388671875	-410.7312316894531	-1512.246948242188	1039.60888671875	-497.1536560058594	-1490.816284179688	1031.459594726562	-132.3812561035156	-1404.713134765625	1103.508911132812	-188.5127105712891	-1401.172485351562	1100.544189453125	-454.8682861328125	-1479.675903320312	535.7841796875	-478.056396484375	-1504.98291015625	682.9664306640625	-501.5508117675781	-1613.20556640625	36.94232940673828	-484.3826599121094	-1590.41796875	292.277099609375	-509.2548828125	-1380.439697265625	38.71973419189453	-433.3430480957031	-1461.302978515625	40.53561019897461	-397.2460632324219	-1486.702270507812	35.15255355834961	-512.4049682617188	-1680.032348632812	36.86578369140625	-418.9857482910156	-1486.382690429688	537.3186645507812	-182.6777801513672	-1469.784301757812	815.4893188476562	-144.9050750732422	-1589.0498046875	27.3739185333252	-213.5264587402344	-1510.290893554688	402.5838012695312	-173.5330657958984	-1358.527709960938	54.56546783447266	-253.6987609863281	-1413.435791015625	36.02256393432617	-298.0263671875	-1456.078491210938	43.03391265869141	-187.3481750488281	-1644.90869140625	30.0180549621582	-265.5823974609375	
492	4.91	-1610.20849609375	1130.446533203125	-258.7356262207031	-1605.079223632812	1131.465942382812	-393.5397338867188	-1613.55517578125	1165.062744140625	-329.92333984375	-1388.391723632812	1358.243896484375	-329.5163269042969	-1645.428100585938	1316.856689453125	-336.7241821289062	-1595.809204101562	1606.8828125	-357.8470458984375	-1418.90234375	1494.491577148438	-338.5789794921875	-1660.05810546875	1427.557495117188	-267.9054870605469	-1600.461181640625	1584.662719726562	-460.0091857910156	-1511.37451171875	1566.431518554688	-523.6873168945312	-1529.642456054688	1433.19287109375	-590.7694702148438	-1513.594604492188	1212.309692382812	-604.01318359375	-1584.487060546875	1202.411987304688	-553.53076171875	-1421.23876953125	955.5874633789062	-540.9301147460938	-1499.460083007812	929.7797241210938	-575.6995239257812	-1497.526245117188	1096.101440429688	-602.0687866210938	-1415.720092773438	762.7999267578125	-510.7599792480469	-1471.337890625	854.340576171875	-570.4593505859375	-1406.38671875	865.283447265625	-546.9812622070312	-1549.02978515625	1590.320068359375	-173.6156158447266	-1571.841674804688	1519.285888671875	-109.3526000976562	-1597.69677734375	1226.1337890625	-84.90052795410156	-1596.218994140625	1223.591186523438	-182.0107727050781	-1465.452514648438	977.3763427734375	-78.45301818847656	-1543.573608398438	963.9749145507812	-55.81773376464844	-1579.999633789062	1152.414794921875	-66.09780120849609	-1447.378784179688	780.9956665039062	-90.04806518554688	-1440.633056640625	868.2456665039062	-67.24787139892578	-1512.179809570312	863.2822265625	-45.10658264160156	-1553.828002929688	1778.1103515625	-276.4311218261719	-1386.4072265625	1839.666015625	-406.22998046875	-1388.040771484375	1843.015014648438	-276.3735046386719	-1559.124267578125	1778.9833984375	-411.7265930175781	-1513.710815429688	1040.048950195312	-498.00341796875	-1491.59521484375	1031.639282226562	-133.5407867431641	-1405.398803710938	1103.745971679688	-189.9427185058594	-1402.479858398438	1100.936767578125	-456.2466430664062	-1482.8466796875	536.3642578125	-479.4495239257812	-1507.7138671875	683.5181884765625	-502.8143005371094	-1613.251708984375	36.81610870361328	-484.4976806640625	-1592.226318359375	292.4357299804688	-509.9632873535156	-1380.519409179688	38.80833053588867	-433.39599609375	-1461.344360351562	40.64898300170898	-397.3456115722656	-1486.744140625	35.0964469909668	-512.5009765625	-1680.13330078125	36.86910247802734	-419.2589111328125	-1487.018920898438	537.5120849609375	-183.3583984375	-1470.554565429688	815.6320190429688	-145.8461303710938	-1589.02880859375	27.42084503173828	-213.5665740966797	-1510.804077148438	402.8139343261719	-174.1134643554688	-1358.403686523438	54.46735763549805	-253.7025756835938	-1413.58447265625	35.96329879760742	-298.0190124511719	-1456.061401367188	43.07316207885742	-187.3569946289062	-1644.874755859375	30.04670715332031	-265.6475524902344	
493	4.92	-1611.020751953125	1130.689208984375	-259.4905395507812	-1606.281005859375	1131.839111328125	-394.3277587890625	-1614.50927734375	1165.415893554688	-330.6723327636719	-1389.549926757812	1358.621337890625	-330.7720642089844	-1646.45849609375	1317.04736328125	-337.2952575683594	-1597.24853515625	1607.071411132812	-358.5482177734375	-1420.1962890625	1494.825561523438	-339.7005310058594	-1660.98486328125	1427.703857421875	-268.4229125976562	-1602.120971679688	1584.892944335938	-460.6603393554688	-1513.142944335938	1566.819702148438	-524.55712890625	-1531.258178710938	1433.604858398438	-591.730224609375	-1514.538696289062	1212.726684570312	-604.93408203125	-1585.523681640625	1202.695556640625	-554.6290283203125	-1421.99560546875	956.0713500976562	-541.6793823242188	-1500.095825195312	930.2046508789062	-576.6807250976562	-1498.2705078125	1096.538208007812	-602.9760131835938	-1416.412475585938	763.2662963867188	-511.5795288085938	-1471.882934570312	854.7789916992188	-571.4002685546875	-1407.029296875	865.7891235351562	-547.730224609375	-1549.996459960938	1590.624755859375	-174.44580078125	-1572.478393554688	1519.556640625	-110.11474609375	-1597.167846679688	1226.235595703125	-85.67460632324219	-1596.288818359375	1223.775756835938	-182.7558288574219	-1463.718627929688	978.1065063476562	-80.28201293945312	-1541.615600585938	964.280029296875	-57.12261962890625	-1578.994506835938	1152.574096679688	-67.0406494140625	-1444.310302734375	782.1887817382812	-92.31287384033203	-1438.208129882812	869.0831909179688	-69.41048431396484	-1509.644165039062	863.6985473632812	-46.84038925170898	-1555.476684570312	1778.30517578125	-277.3826904296875	-1388.151977539062	1840.129150390625	-407.173095703125	-1389.765991210938	1843.463256835938	-277.3106079101562	-1560.781616210938	1779.211181640625	-412.6788940429688	-1515.073974609375	1040.429077148438	-498.8782348632812	-1492.40283203125	1031.813232421875	-134.7150268554688	-1406.113525390625	1103.973876953125	-191.3291625976562	-1403.759155273438	1101.330688476562	-457.5740051269531	-1485.749633789062	536.8575439453125	-480.7250366210938	-1510.14404296875	683.9769897460938	-504.006591796875	-1613.284301757812	36.72877502441406	-484.5801391601562	-1593.896362304688	292.5562744140625	-510.616455078125	-1380.58447265625	38.89605331420898	-433.4379272460938	-1461.369750976562	40.75598907470703	-397.4298095703125	-1486.77880859375	35.05007171630859	-512.5790405273438	-1680.223266601562	36.89532470703125	-419.4967041015625	-1487.651489257812	537.6965942382812	-183.9972686767578	-1471.184936523438	815.8209228515625	-146.7422332763672	-1589.0087890625	27.45478248596191	-213.6129455566406	-1511.343017578125	403.0186462402344	-174.6699676513672	-1358.312622070312	54.39956665039062	-253.6636657714844	-1413.736694335938	35.92115783691406	-297.9926147460938	-1456.055297851562	43.10414505004883	-187.3569488525391	-1644.846069335938	30.07501983642578	-265.7312622070312	
